<svg width="49" height="49" viewBox="0 0 49 49" fill="none" xmlns="http://www.w3.org/2000/svg">
<path d="M9.09479 6.12505H6.12539C5.8005 6.12505 5.48892 5.99599 5.25919 5.76625C5.02945 5.53652 4.90039 5.22494 4.90039 4.90005C4.90039 4.57516 5.02945 4.26358 5.25919 4.03384C5.48892 3.80411 5.8005 3.67505 6.12539 3.67505H10.0527C10.326 3.67512 10.5914 3.76656 10.8067 3.93481C11.022 4.10306 11.1749 4.33847 11.241 4.6036L15.8886 23.2236C15.9589 23.5358 15.9042 23.863 15.7363 24.1354C15.5683 24.4078 15.3005 24.6036 14.9901 24.6811C14.6796 24.7586 14.3511 24.7115 14.075 24.5499C13.7988 24.3883 13.5968 24.1251 13.5121 23.8165L9.09479 6.12505Z" fill="black"/>
<path fill-rule="evenodd" clip-rule="evenodd" d="M37.9635 18.375H18.388C18.0205 18.375 17.653 18.4167 17.2929 18.4975C16.0185 18.796 14.9143 19.5872 14.2219 20.6979C13.5295 21.8086 13.3053 23.1484 13.5983 24.424L15.5166 32.9035C15.7603 33.9938 16.3679 34.9687 17.2393 35.6678C18.1107 36.3668 19.1941 36.7485 20.3113 36.75H36.0452C37.1617 36.7471 38.2441 36.3648 39.1149 35.6659C39.9856 34.967 40.593 33.993 40.8374 32.9035L42.7558 24.4216C42.9238 23.6993 42.9268 22.9485 42.7644 22.2249C42.602 21.5014 42.2784 20.8238 41.8178 20.2426C41.3572 19.6615 40.7715 19.1917 40.1041 18.8683C39.4368 18.545 38.7051 18.3763 37.9635 18.375ZM17.8441 20.8862C18.0234 20.8452 18.2067 20.8247 18.3905 20.825H37.9635C38.3371 20.8271 38.7053 20.9134 39.0408 21.0776C39.3763 21.2418 39.6704 21.4796 39.9012 21.7733C40.132 22.0669 40.2935 22.4089 40.3738 22.7737C40.454 23.1385 40.4508 23.5167 40.3645 23.8801L38.4437 32.362C38.3226 32.9095 38.019 33.3995 37.5827 33.7516C37.1464 34.1038 36.6034 34.2971 36.0428 34.3H20.3113C19.1647 34.3 18.1675 33.4964 17.9103 32.362L15.9919 23.8801C15.8433 23.2374 15.9548 22.5618 16.3023 22.001C16.6497 21.4401 17.2024 21.0394 17.8441 20.8862Z" fill="black"/>
<path d="M41.6508 41.0375C41.6508 42.1746 41.1991 43.2652 40.395 44.0692C39.5909 44.8733 38.5004 45.325 37.3633 45.325C36.2262 45.325 35.1356 44.8733 34.3316 44.0692C33.5275 43.2652 33.0758 42.1746 33.0758 41.0375C33.0758 39.9004 33.5275 38.8098 34.3316 38.0058C35.1356 37.2017 36.2262 36.75 37.3633 36.75C38.5004 36.75 39.5909 37.2017 40.395 38.0058C41.1991 38.8098 41.6508 39.9004 41.6508 41.0375ZM24.5008 41.0375C24.5008 41.6005 24.3899 42.1581 24.1744 42.6783C23.9589 43.1984 23.6431 43.6711 23.245 44.0692C22.8469 44.4674 22.3742 44.7832 21.854 44.9986C21.3339 45.2141 20.7763 45.325 20.2133 45.325C19.6502 45.325 19.0927 45.2141 18.5725 44.9986C18.0523 44.7832 17.5797 44.4674 17.1816 44.0692C16.7834 43.6711 16.4676 43.1984 16.2521 42.6783C16.0367 42.1581 15.9258 41.6005 15.9258 41.0375C15.9258 39.9004 16.3775 38.8098 17.1816 38.0058C17.9856 37.2017 19.0762 36.75 20.2133 36.75C21.3504 36.75 22.4409 37.2017 23.245 38.0058C24.0491 38.8098 24.5008 39.9004 24.5008 41.0375Z" fill="black"/>
</svg>
