<svg width="50" height="50" viewBox="0 0 50 50" fill="none" xmlns="http://www.w3.org/2000/svg">
<path d="M40.6251 28.125C40.6291 28.7621 40.4355 29.3847 40.071 29.9072C39.7066 30.4298 39.1892 30.8266 38.5899 31.0429L28.5157 34.7656L24.8048 44.8476C24.585 45.4446 24.1874 45.9599 23.6657 46.3238C23.1439 46.6878 22.523 46.8829 21.8868 46.8829C21.2507 46.8829 20.6298 46.6878 20.108 46.3238C19.5862 45.9599 19.1886 45.4446 18.9689 44.8476L15.2345 34.7656L5.15247 31.0547C4.55546 30.8349 4.04022 30.4373 3.67627 29.9155C3.31233 29.3937 3.11719 28.7729 3.11719 28.1367C3.11719 27.5005 3.31233 26.8797 3.67627 26.3579C4.04022 25.8361 4.55546 25.4385 5.15247 25.2187L15.2345 21.4844L18.9454 11.4023C19.1652 10.8053 19.5628 10.2901 20.0846 9.92614C20.6064 9.56219 21.2272 9.36705 21.8634 9.36705C22.4996 9.36705 23.1204 9.56219 23.6422 9.92614C24.164 10.2901 24.5616 10.8053 24.7814 11.4023L28.5157 21.4844L38.5978 25.1953C39.1974 25.4136 39.7145 25.8127 40.0776 26.3375C40.4408 26.8623 40.6321 27.4868 40.6251 28.125ZM29.6876 9.37499H32.8126V12.5C32.8126 12.9144 32.9772 13.3118 33.2702 13.6048C33.5633 13.8979 33.9607 14.0625 34.3751 14.0625C34.7895 14.0625 35.1869 13.8979 35.48 13.6048C35.773 13.3118 35.9376 12.9144 35.9376 12.5V9.37499H39.0626C39.477 9.37499 39.8744 9.21037 40.1674 8.91735C40.4605 8.62432 40.6251 8.2269 40.6251 7.81249C40.6251 7.39809 40.4605 7.00067 40.1674 6.70764C39.8744 6.41462 39.477 6.25 39.0626 6.25H35.9376V3.125C35.9376 2.7106 35.773 2.31317 35.48 2.02015C35.1869 1.72712 34.7895 1.5625 34.3751 1.5625C33.9607 1.5625 33.5633 1.72712 33.2702 2.02015C32.9772 2.31317 32.8126 2.7106 32.8126 3.125V6.25H29.6876C29.2732 6.25 28.8758 6.41462 28.5828 6.70764C28.2897 7.00067 28.1251 7.39809 28.1251 7.81249C28.1251 8.2269 28.2897 8.62432 28.5828 8.91735C28.8758 9.21037 29.2732 9.37499 29.6876 9.37499ZM46.8751 15.625H45.3126V14.0625C45.3126 13.6481 45.148 13.2507 44.8549 12.9576C44.5619 12.6646 44.1645 12.5 43.7501 12.5C43.3357 12.5 42.9383 12.6646 42.6452 12.9576C42.3522 13.2507 42.1876 13.6481 42.1876 14.0625V15.625H40.6251C40.2107 15.625 39.8133 15.7896 39.5202 16.0826C39.2272 16.3757 39.0626 16.7731 39.0626 17.1875C39.0626 17.6019 39.2272 17.9993 39.5202 18.2923C39.8133 18.5854 40.2107 18.75 40.6251 18.75H42.1876V20.3125C42.1876 20.7269 42.3522 21.1243 42.6452 21.4173C42.9383 21.7104 43.3357 21.875 43.7501 21.875C44.1645 21.875 44.5619 21.7104 44.8549 21.4173C45.148 21.1243 45.3126 20.7269 45.3126 20.3125V18.75H46.8751C47.2895 18.75 47.6869 18.5854 47.9799 18.2923C48.273 17.9993 48.4376 17.6019 48.4376 17.1875C48.4376 16.7731 48.273 16.3757 47.9799 16.0826C47.6869 15.7896 47.2895 15.625 46.8751 15.625Z" fill="url(#paint0_linear_85_1219)"/>
<defs>
<linearGradient id="paint0_linear_85_1219" x1="25.7774" y1="1.5625" x2="25.7774" y2="46.8829" gradientUnits="userSpaceOnUse">
<stop stop-color="#FD913C"/>
<stop offset="1" stop-color="#F13AB1"/>
</linearGradient>
</defs>
</svg>
