<svg width="79" height="65" viewBox="0 0 79 65" fill="none" xmlns="http://www.w3.org/2000/svg">
<path fill-rule="evenodd" clip-rule="evenodd" d="M38.8434 56.8152C38.8764 56.8219 38.9088 56.8319 38.94 56.8451C38.9063 56.8412 38.8736 56.831 38.8434 56.8152ZM39.1524 56.8949C39.22 56.9049 39.3069 56.9248 39.3649 56.9348C39.3069 56.9248 39.2297 56.9049 39.1524 56.8949ZM39.5387 56.9448C39.5963 56.9528 39.6544 56.9561 39.7125 56.9548C39.6546 56.9662 39.595 56.9627 39.5387 56.9448Z" fill="#F37320"/>
<path fill-rule="evenodd" clip-rule="evenodd" d="M39.3842 56.9248C39.4421 56.9248 39.5001 56.9347 39.5387 56.9347C39.487 56.9358 39.4353 56.9325 39.3842 56.9248ZM40.7941 56.8749C40.8851 56.8598 40.9754 56.8398 41.0645 56.8151C40.9775 56.8251 40.8906 56.855 40.7941 56.8749ZM40.0408 56.9647C40.2813 56.9594 40.5207 56.9293 40.7554 56.8749C40.5217 56.9348 40.2817 56.9649 40.0408 56.9647ZM39.7222 56.9547C39.7898 56.9547 39.8767 56.9647 39.9636 56.9647C39.883 56.9667 39.8023 56.9634 39.7222 56.9547ZM24.3196 15.5321H24.3293C24.4648 15.4792 24.6094 15.4554 24.7542 15.4623C24.5626 15.4789 24.3742 15.5226 24.1941 15.5919C24.2377 15.5762 24.2797 15.5561 24.3196 15.5321Z" fill="#F15E22"/>
<path fill-rule="evenodd" clip-rule="evenodd" d="M25.2849 15.5321H25.2946C25.3396 15.5597 25.3885 15.5799 25.4395 15.5919C25.2159 15.5118 24.9808 15.4713 24.7442 15.4723C24.9264 15.4448 25.1125 15.4654 25.2849 15.5321Z" fill="#EC008B"/>
<path fill-rule="evenodd" clip-rule="evenodd" d="M19.7715 17.1371C19.9106 17.0849 20.0582 17.0612 20.2061 17.0674C20.0132 17.0743 19.8232 17.1182 19.646 17.197C19.6857 17.1726 19.7278 17.1525 19.7715 17.1371Z" fill="#F15E22"/>
<path fill-rule="evenodd" clip-rule="evenodd" d="M20.7469 17.1273C20.7936 17.1605 20.846 17.1842 20.9014 17.1971C20.6828 17.1094 20.4502 17.0654 20.2157 17.0675C20.3949 17.0467 20.5763 17.0671 20.7469 17.1273Z" fill="#EC008B"/>
<path fill-rule="evenodd" clip-rule="evenodd" d="M19.5781 17.237C19.7178 17.1878 19.8654 17.1675 20.0127 17.1771C19.8205 17.1813 19.6306 17.2218 19.4526 17.2968C19.5009 17.2768 19.5299 17.2569 19.5781 17.237Z" fill="#F15E22"/>
<path fill-rule="evenodd" clip-rule="evenodd" d="M20.5437 17.227C20.592 17.2569 20.6403 17.2669 20.6982 17.2968C20.4799 17.2083 20.2471 17.1643 20.0126 17.1672C20.1917 17.1551 20.3714 17.1754 20.5437 17.227Z" fill="#EC008B"/>
<path fill-rule="evenodd" clip-rule="evenodd" d="M55.9553 7.20785H55.9457C55.9071 7.19788 55.8491 7.17794 55.8008 7.16797C59.6346 7.76613 68.1325 21.8827 72.7002 34.8328C77.5575 48.6204 76.389 55.27 72.5746 56.7155H72.565C68.7505 58.1411 63.7194 53.8244 58.8524 40.0269C57.539 36.3083 56.4189 32.2807 55.5304 28.3727C57.8963 17.8651 58.4178 8.1649 55.9553 7.20785Z" fill="#F13AB1"/>
<path fill-rule="evenodd" clip-rule="evenodd" d="M41.3639 56.7155C45.1977 55.26 46.3468 48.6005 41.4895 34.8329C41.0066 33.4671 40.4948 32.0813 39.9251 30.7155C44.9176 18.4034 52.6141 6.47013 55.8008 7.15801C55.5708 7.12554 55.3366 7.14596 55.1152 7.21783H55.1055V7.22779C52.6372 8.17488 53.1645 17.8651 55.5343 28.3827C54.6622 32.3315 53.5528 36.2205 52.2123 40.0269C48.3786 50.8934 44.4386 55.8681 41.0781 56.7953C41.1763 56.7756 41.2731 56.7489 41.3678 56.7155" fill="#FD913C"/>
<path fill-rule="evenodd" clip-rule="evenodd" d="M55.1147 7.22774H55.1244C55.3361 7.15727 55.5606 7.13683 55.781 7.16792C55.8486 7.17789 55.8776 7.19783 55.9355 7.2078H55.9452C58.4077 8.16485 57.8862 17.865 55.5299 28.3727C53.1834 17.865 52.6522 8.18479 55.1147 7.22774Z" fill="#F05524"/>
<path fill-rule="evenodd" clip-rule="evenodd" d="M25.0243 7.27759C28.5973 8.61348 35.357 19.5199 39.915 30.7055C39.3549 32.0713 38.8335 33.457 38.3506 34.8228C33.4933 48.6004 34.6521 55.2599 38.4762 56.6955V56.7055C38.5921 56.7354 38.7176 56.7753 38.8142 56.8052C35.444 55.908 31.4654 50.9432 27.6413 40.0168C26.3329 36.3117 25.2493 32.526 24.3966 28.6817C26.7625 18.2638 27.3613 8.54369 25.0243 7.27759Z" fill="#FD913C"/>
<path fill-rule="evenodd" clip-rule="evenodd" d="M38.4958 56.7056H38.4862C34.6718 55.27 33.513 48.5905 38.3606 34.8229C38.8628 33.4571 39.3746 32.0714 39.9444 30.7056C40.5044 32.0714 41.0259 33.4571 41.5087 34.8229C46.3661 48.6005 45.1976 55.27 41.3832 56.7056C41.2866 56.7454 41.1804 56.7654 41.0838 56.7953C40.9962 56.8279 40.9056 56.8513 40.8135 56.8651H40.7748C40.5369 56.9214 40.2945 56.9548 40.0506 56.9648H39.7416C39.6828 56.9605 39.6246 56.9505 39.5677 56.9349C39.5001 56.9349 39.4519 56.9249 39.3843 56.9249C39.3167 56.9249 39.2587 56.895 39.1815 56.885C39.1029 56.8823 39.0249 56.8689 38.9497 56.8451C38.9111 56.8451 38.8821 56.8352 38.8531 56.8352C38.7276 56.7853 38.6117 56.7554 38.4958 56.7056Z" fill="#F05524"/>
<path fill-rule="evenodd" clip-rule="evenodd" d="M23.8075 7.26758C21.4416 8.48384 22.0307 18.2139 24.4062 28.7016C23.5506 32.5374 22.4702 36.3161 21.1712 40.0168C16.3042 53.8044 11.2731 58.1311 7.43933 56.7055H7.42967C3.62491 55.2499 2.45644 48.6104 7.31379 34.8228C11.7269 22.3113 19.8038 8.7231 23.8075 7.26758Z" fill="#F13AB1"/>
<path fill-rule="evenodd" clip-rule="evenodd" d="M23.8081 7.26754C23.9887 7.19973 24.1769 7.15617 24.3682 7.13794C24.6031 7.14937 24.8346 7.19986 25.0539 7.28748C27.3715 8.55358 26.7921 18.2537 24.4165 28.7016C22.0216 18.2238 21.4422 8.49377 23.8081 7.26754Z" fill="#F05524"/>
</svg>
