<svg width="41" height="42" viewBox="0 0 41 42" fill="none" xmlns="http://www.w3.org/2000/svg">
<g filter="url(#filter0_d_52_405)">
<path d="M27.6121 0C24.7544 0 22.2183 1.313 20.5 3.56978C18.7817 1.313 16.2456 0 13.3879 0C10.899 0.00350537 8.51291 1.15596 6.75299 3.20458C4.99306 5.2532 4.00301 8.03072 4 10.9279C4 22.9056 19.0506 32.4758 19.6906 32.8781C19.9394 33.034 20.2175 33.1157 20.5 33.1157C20.7825 33.1157 21.0606 33.034 21.3094 32.8781C21.9494 32.4758 37 22.9056 37 10.9279C36.997 8.03072 36.0069 5.2532 34.247 3.20458C32.4871 1.15596 30.101 0.00350537 27.6121 0ZM26.8312 23.5712C24.8501 25.528 22.7324 27.2892 20.5 28.8364C18.2676 27.2892 16.1499 25.528 14.1688 23.5712C11.0865 20.4931 7.41379 15.7991 7.41379 10.9279C7.41379 9.08356 8.04321 7.31475 9.16358 6.0106C10.2839 4.70645 11.8035 3.97378 13.3879 3.97378C15.9198 3.97378 18.0392 5.53018 18.9197 8.03698C19.0478 8.40241 19.2666 8.71514 19.5481 8.93527C19.8295 9.1554 20.1609 9.27296 20.5 9.27296C20.8391 9.27296 21.1705 9.1554 21.4519 8.93527C21.7334 8.71514 21.9522 8.40241 22.0803 8.03698C22.9608 5.53018 25.0802 3.97378 27.6121 3.97378C29.1965 3.97378 30.7161 4.70645 31.8364 6.0106C32.9568 7.31475 33.5862 9.08356 33.5862 10.9279C33.5862 15.7991 29.9135 20.4931 26.8312 23.5712Z" fill="black"/>
</g>
<defs>
<filter id="filter0_d_52_405" x="0" y="0" width="41" height="41.1157" filterUnits="userSpaceOnUse" color-interpolation-filters="sRGB">
<feFlood flood-opacity="0" result="BackgroundImageFix"/>
<feColorMatrix in="SourceAlpha" type="matrix" values="0 0 0 0 0 0 0 0 0 0 0 0 0 0 0 0 0 0 127 0" result="hardAlpha"/>
<feOffset dy="4"/>
<feGaussianBlur stdDeviation="2"/>
<feComposite in2="hardAlpha" operator="out"/>
<feColorMatrix type="matrix" values="0 0 0 0 0 0 0 0 0 0 0 0 0 0 0 0 0 0 0.25 0"/>
<feBlend mode="normal" in2="BackgroundImageFix" result="effect1_dropShadow_52_405"/>
<feBlend mode="normal" in="SourceGraphic" in2="effect1_dropShadow_52_405" result="shape"/>
</filter>
</defs>
</svg>
